<svg width="440" height="190" viewBox="0 0 440 190" xmlns="http://www.w3.org/2000/svg" role="img" aria-label="lide4144 top languages">
  <rect x="7" y="7" width="426" height="176" fill="#e60012" transform="rotate(1 220 95)"/>
  <path d="M12 20L426 10L432 169L18 181Z" fill="#0a0a0a" stroke="#fff" stroke-width="3"/>
  <path d="M351 12L426 10L432 169L375 171Z" fill="#e60012"/>
  <text x="34" y="51" fill="#fff" font-family="'Arial Black',Arial,sans-serif" font-size="24" font-weight="900">TOP LANGUAGES</text>
  <text x="34" y="72" fill="#e60012" font-family="Arial,sans-serif" font-size="11" font-weight="800" letter-spacing="3">PUBLIC REPOSITORIES</text>
  <clipPath id="bar-clip"><rect x="34" y="88" width="294" height="12" rx="6"/></clipPath>
  <g clip-path="url(#bar-clip)">
    <rect x="34" y="88" width="124" height="12" fill="#3178c6"/>
    <rect x="158" y="88" width="79" height="12" fill="#3572a5"/>
    <rect x="237" y="88" width="23" height="12" fill="#f1e05a"/>
    <rect x="260" y="88" width="23" height="12" fill="#dea584"/>
    <rect x="283" y="88" width="23" height="12" fill="#89e051"/>
    <rect x="306" y="88" width="22" height="12" fill="#888"/>
  </g>
  <g font-family="Arial,sans-serif" font-size="12">
    <circle cx="39" cy="121" r="5" fill="#3178c6"/><text x="50" y="125" fill="#fff">TypeScript 42.3%</text>
    <circle cx="179" cy="121" r="5" fill="#3572a5"/><text x="190" y="125" fill="#fff">Python 26.9%</text>
    <circle cx="39" cy="148" r="5" fill="#f1e05a"/><text x="50" y="152" fill="#fff">JavaScript 7.7%</text>
    <circle cx="179" cy="148" r="5" fill="#dea584"/><text x="190" y="152" fill="#fff">Rust 7.7%</text>
    <circle cx="39" cy="170" r="5" fill="#89e051"/><text x="50" y="174" fill="#fff">Shell 7.7%</text>
    <circle cx="179" cy="170" r="5" fill="#888"/><text x="190" y="174" fill="#fff">Other 7.7%</text>
  </g>
  <text x="397" y="101" text-anchor="middle" fill="#0a0a0a" font-family="'Arial Black',Arial,sans-serif" font-size="34" font-weight="900" transform="rotate(4 397 101)">02</text>
</svg>
